D:\Gebruiker\Documents\~school~\WTK\thesis\model\3dpredictsim_Lars\Results\Test_Lars\Test1_bCst_exo_GRF.mot
nRows=12
nColumns=19

name D:\Gebruiker\Documents\~school~\WTK\thesis\model\3dpredictsim_Lars\Results\Test_Lars\Test1_bCst_exo_GRF.mot
datacolumns 19
datarows 12
range 0.0000000000 0.1271215442
endheader
time 	ground_force_vx	ground_force_vy	ground_force_vz	ground_force_px	ground_force_py	ground_force_pz	1_ground_force_vx	1_ground_force_vy	1_ground_force_vz	1_ground_force_px	1_ground_force_py	1_ground_force_pz	ground_torque_x	ground_torque_y	ground_torque_z	1_ground_torque_x	1_ground_torque_y	1_ground_torque_z
        0.0000000000	      -75.2786765921	       57.9050802548	       18.2531556357	        0.1629815116	        0.0000000000	        0.0503866205	      104.0437547810	      427.6565224459	       -2.1528771973	       -0.3412591700	        0.0000000000	       -0.0366546425	        0.0000000000	        0.0000000000	        0.0000000000	        0.0000000000	        0.0000000000	        0.0000000000	
        0.0115565040	     -136.4529100023	      139.0298444795	       48.3642466493	        0.1715048092	        0.0000000000	        0.0485694115	       72.1557563116	      326.7035679312	       -7.9655038316	       -0.3341951114	        0.0000000000	       -0.0338728529	        0.0000000000	        0.0000000000	        0.0000000000	        0.0000000000	        0.0000000000	        0.0000000000	
        0.0231130080	      -62.1341265753	      297.8106003238	       20.7007511504	        0.1782369807	        0.0000000000	        0.0469443348	       39.6671254176	      218.5051569808	      -14.0721417959	       -0.3216941204	        0.0000000000	       -0.0284322940	        0.0000000000	        0.0000000000	        0.0000000000	        0.0000000000	        0.0000000000	        0.0000000000	
        0.0346695120	      -52.7933567584	      498.5668142736	       -2.3028953378	        0.1838706448	        0.0000000000	        0.0474946231	       25.1105716550	      164.1312930931	      -15.7422041176	       -0.3134087722	        0.0000000000	       -0.0243220284	        0.0000000000	        0.0000000000	        0.0000000000	        0.0000000000	        0.0000000000	        0.0000000000	
        0.0462260161	      -89.2776349207	      724.5443338805	      -14.7970259180	        0.1936033630	        0.0000000000	        0.0499236373	       21.9991905881	      130.5824882091	      -14.1524822395	       -0.3130988058	        0.0000000000	       -0.0242853145	        0.0000000000	        0.0000000000	        0.0000000000	        0.0000000000	        0.0000000000	        0.0000000000	
        0.0577825201	     -114.6808769248	      846.4527450103	      -20.4454212895	        0.2001483077	        0.0000000000	        0.0514934663	       13.2156462719	       84.9946914571	      -13.8674383667	       -0.3128066279	        0.0000000000	       -0.0244945113	        0.0000000000	        0.0000000000	        0.0000000000	        0.0000000000	        0.0000000000	        0.0000000000	
        0.0693390241	     -120.8632138160	      874.7861518435	      -20.9854652547	        0.2044950361	        0.0000000000	        0.0524223819	        0.7581674188	       34.7651516406	       -8.6455234808	       -0.3131165054	        0.0000000000	       -0.0246470915	        0.0000000000	        0.0000000000	        0.0000000000	        0.0000000000	        0.0000000000	        0.0000000000	
        0.0808955281	     -113.5813082111	      858.8790385476	      -20.4831599687	        0.2081669797	        0.0000000000	        0.0529527705	        0.3783473174	       -0.3921618968	        0.0280919205	        0.0000000000	        0.0000000000	        0.0000000000	        0.0000000000	        0.0000000000	        0.0000000000	        0.0000000000	        0.0000000000	        0.0000000000	
        0.0924520321	     -101.1197239306	      824.3314149224	      -20.0516697307	        0.2120818534	        0.0000000000	        0.0531551879	        0.0014056887	       -0.0011690226	       -0.0000533458	        0.0000000000	        0.0000000000	        0.0000000000	        0.0000000000	        0.0000000000	        0.0000000000	        0.0000000000	        0.0000000000	        0.0000000000	
        0.1040085361	      -89.0784059568	      784.2926744117	      -19.4840951321	        0.2166029399	        0.0000000000	        0.0531438794	        0.0009293204	       -0.0006619629	       -0.0000556606	        0.0000000000	        0.0000000000	        0.0000000000	        0.0000000000	        0.0000000000	        0.0000000000	        0.0000000000	        0.0000000000	        0.0000000000	
        0.1155650402	      -80.2770610794	      750.2259670068	      -19.3055982095	        0.2219537115	        0.0000000000	        0.0529459354	        0.0078965202	       -0.0050047738	       -0.0005391542	        0.0000000000	        0.0000000000	        0.0000000000	        0.0000000000	        0.0000000000	        0.0000000000	        0.0000000000	        0.0000000000	        0.0000000000	
        0.1271215442	      -71.4394079228	      719.7671607606	      -19.2090444203	        0.2273455831	        0.0000000000	        0.0526456664	       -0.0452859003	        0.0261693059	        0.0032874841	        0.0000000000	        0.0000000000	        0.0000000000	        0.0000000000	        0.0000000000	        0.0000000000	        0.0000000000	        0.0000000000	        0.0000000000	
